<svg width="625" height="625" viewBox="0 0 625 625" fill="none" xmlns="http://www.w3.org/2000/svg">
<path d="M307.014 6.58794C307.508 -0.215179 317.492 -0.215179 317.986 6.58794L332.932 212.77C333.378 218.916 341.327 221.05 344.791 215.954L461.076 44.8712C464.911 39.2295 473.553 44.232 470.571 50.3673L380.202 236.293C377.506 241.839 383.326 247.67 388.877 244.986L575.233 154.871C581.375 151.901 586.36 160.557 580.708 164.379L409.347 280.256C404.235 283.713 406.365 291.68 412.52 292.124L618.985 307.014C625.79 307.505 625.79 317.495 618.985 317.986L412.52 332.876C406.365 333.32 404.235 341.287 409.347 344.744L580.708 460.621C586.36 464.443 581.375 473.099 575.233 470.129L388.877 380.014C383.326 377.33 377.506 383.161 380.202 388.707L470.571 574.633C473.554 580.768 464.911 585.771 461.076 580.129L344.791 409.046C341.327 403.95 333.378 406.084 332.932 412.23L317.986 618.412C317.492 625.215 307.508 625.215 307.014 618.412L292.068 412.23C291.622 406.084 283.673 403.95 280.209 409.046L163.924 580.129C160.089 585.771 151.447 580.768 154.429 574.633L244.798 388.707C247.494 383.161 241.674 377.33 236.123 380.014L49.7672 470.129C43.6248 473.099 38.6401 464.443 44.292 460.621L215.653 344.744C220.765 341.287 218.635 333.32 212.48 332.876L6.01543 317.986C-0.790413 317.495 -0.790398 307.505 6.01541 307.014L212.48 292.124C218.635 291.68 220.765 283.713 215.653 280.256L44.292 164.379C38.6401 160.557 43.6248 151.901 49.7673 154.871L236.123 244.986C241.674 247.67 247.494 241.839 244.798 236.293L154.429 50.3673C151.447 44.2321 160.089 39.2295 163.924 44.8712L280.209 215.954C283.673 221.05 291.622 218.916 292.068 212.77L307.014 6.58794Z" stroke="#FFAD33"/>
</svg>
