<svg width="54" height="59" viewBox="0 0 54 59" fill="none" xmlns="http://www.w3.org/2000/svg">
<path fill-rule="evenodd" clip-rule="evenodd" d="M40.7226 1.5201C31.6848 -0.506699 22.3125 -0.506699 13.2747 1.5201L12.3009 1.73624C9.75869 2.30646 7.42381 3.57256 5.55563 5.39388C3.68745 7.2152 2.35912 9.52045 1.71819 12.0535C-0.57273 21.1101 -0.57273 30.5972 1.71819 39.6537C2.32941 42.0695 3.56645 44.2803 5.30388 46.0618C7.04132 47.8433 9.21739 49.1323 11.6115 49.7981L12.9472 57.7983C12.9899 58.0524 13.0996 58.2903 13.2651 58.4873C13.4305 58.6844 13.6455 58.8333 13.8878 58.9186C14.1301 59.004 14.3908 59.0226 14.6427 58.9725C14.8945 58.9225 15.1285 58.8056 15.32 58.6341L23.1651 51.5935C29.0543 51.9541 34.9647 51.4816 40.7226 50.19L41.6993 49.9739C44.2415 49.4037 46.5764 48.1376 48.4445 46.3163C50.3127 44.4949 51.6411 42.1897 52.282 39.6566C54.5727 30.6 54.5727 21.113 52.282 12.0564C51.6408 9.52296 50.3121 7.21747 48.4434 5.39611C46.5746 3.57475 44.2391 2.30887 41.6964 1.73912L40.7226 1.5201ZM15.6992 11.8201C15.1653 11.7421 14.6209 11.8499 14.1566 12.1256H14.1164C13.0392 12.7596 12.0682 13.5579 11.2409 14.4974C10.5515 15.2957 10.178 16.1026 10.0804 16.8808C10.0229 17.3419 10.0631 17.8087 10.1982 18.2497L10.2499 18.2785C11.0255 20.5639 12.0366 22.7628 13.2719 24.832C14.8646 27.7384 16.8246 30.4264 19.1033 32.8293L19.1722 32.9273L19.2814 33.008L19.3474 33.0858L19.4279 33.155C21.8315 35.4479 24.5171 37.4236 27.4195 39.0341C30.7374 40.8468 32.7511 41.7028 33.9604 42.0601V42.0774C34.3138 42.1869 34.6355 42.2359 34.9601 42.2359C35.9901 42.1596 36.9649 41.7395 37.7293 41.0428C38.6629 40.2128 39.4529 39.2358 40.0676 38.1494V38.1292C40.645 37.0341 40.4497 36.0023 39.6166 35.302C37.9433 33.8352 36.1339 32.5324 34.2132 31.4114C32.9263 30.7111 31.6193 31.1348 31.0907 31.8437L29.9618 33.2731C29.3815 33.9821 28.3301 33.8841 28.3301 33.8841L28.3014 33.9014C20.4563 31.8927 18.3621 23.9242 18.3621 23.9242C18.3621 23.9242 18.2645 22.8406 18.9912 22.2872L20.4046 21.146C21.0825 20.5927 21.5536 19.2843 20.8268 17.9932C19.7169 16.0645 18.4209 14.2498 16.9574 12.5752C16.6382 12.181 16.1906 11.9126 15.6935 11.8172L15.6992 11.8201ZM28.9535 8.35602C28.5725 8.35602 28.2072 8.50784 27.9378 8.77807C27.6685 9.0483 27.5172 9.41482 27.5172 9.79698C27.5172 10.1792 27.6685 10.5457 27.9378 10.8159C28.2072 11.0861 28.5725 11.2379 28.9535 11.2379C32.5873 11.2379 35.6036 12.4282 37.9907 14.7107C39.2173 15.9585 40.1739 17.437 40.8001 19.0566C41.4292 20.6791 41.7165 22.4112 41.6418 24.1461C41.6339 24.3353 41.6632 24.5243 41.7281 24.7021C41.7929 24.88 41.8921 25.0433 42.0198 25.1827C42.2779 25.4643 42.6369 25.6315 43.0178 25.6476C43.3987 25.6636 43.7704 25.5272 44.0511 25.2683C44.3318 25.0094 44.4984 24.6493 44.5144 24.2671C44.6035 22.133 44.2504 20.0036 43.4774 18.0134C42.7011 16.0137 41.5239 14.1951 40.0188 12.6703L39.9901 12.6414C37.0284 9.80275 33.2796 8.35602 28.9535 8.35602ZM28.8558 13.0939C28.4749 13.0939 28.1095 13.2457 27.8402 13.516C27.5708 13.7862 27.4195 14.1527 27.4195 14.5349C27.4195 14.917 27.5708 15.2835 27.8402 15.5538C28.1095 15.824 28.4749 15.9758 28.8558 15.9758H28.9046C31.5245 16.1632 33.4319 17.0393 34.7676 18.4773C36.1379 19.9587 36.8474 21.8002 36.7928 24.0769C36.7841 24.4591 36.927 24.8291 37.1902 25.1055C37.4533 25.382 37.8152 25.5422 38.1961 25.551C38.577 25.5598 38.9459 25.4164 39.2214 25.1524C39.497 24.8884 39.6567 24.5254 39.6655 24.1432C39.7344 21.1546 38.7749 18.5753 36.8733 16.5176V16.5119C34.9285 14.4196 32.2598 13.3129 29.0483 13.0968L28.9994 13.091L28.8558 13.0939ZM28.8012 17.9211C28.609 17.9041 28.4153 17.9261 28.2318 17.9859C28.0482 18.0456 27.8786 18.1418 27.7329 18.2688C27.5872 18.3958 27.4686 18.5509 27.384 18.7249C27.2994 18.8989 27.2507 19.0882 27.2406 19.2815C27.2306 19.4749 27.2595 19.6682 27.3256 19.8501C27.3917 20.032 27.4936 20.1986 27.6253 20.3401C27.7571 20.4816 27.9158 20.595 28.0922 20.6735C28.2686 20.7521 28.4589 20.7942 28.6518 20.7973C29.8526 20.8607 30.6196 21.2238 31.1022 21.7109C31.5877 22.2008 31.9496 22.9876 32.0157 24.2181C32.0193 24.4115 32.0616 24.6022 32.1402 24.7788C32.2188 24.9554 32.332 25.1143 32.4731 25.2461C32.6143 25.3779 32.7804 25.4798 32.9616 25.5458C33.1428 25.6118 33.3354 25.6405 33.5279 25.6303C33.7204 25.62 33.9089 25.571 34.0821 25.4861C34.2554 25.4012 34.4098 25.2822 34.5362 25.1362C34.6626 24.9902 34.7584 24.8201 34.8179 24.6361C34.8774 24.4522 34.8994 24.2581 34.8825 24.0654C34.7906 22.3362 34.2506 20.8088 33.1446 19.6849C32.0329 18.5609 30.519 18.0134 28.8012 17.9211Z" fill="white"/>
</svg>
